<?xml version="1.0" encoding="UTF-8" standalone="no"?>
<!-- Created with Inkscape (http://www.inkscape.org/) -->

<svg
   version="1.1"
   id="svg1"
   width="66.666664"
   height="66.666664"
   viewBox="0 0 66.666664 66.666664"
   sodipodi:docname="visits.svg"
   inkscape:version="1.3.2 (091e20ef0f, 2023-11-25, custom)"
   inkscape:export-filename="visits.svg"
   inkscape:export-xdpi="96"
   inkscape:export-ydpi="96"
   xmlns:inkscape="http://www.inkscape.org/namespaces/inkscape"
   xmlns:sodipodi="http://sodipodi.sourceforge.net/DTD/sodipodi-0.dtd"
   xmlns="http://www.w3.org/2000/svg"
   xmlns:svg="http://www.w3.org/2000/svg">
  <defs
     id="defs1" />
  <sodipodi:namedview
     id="namedview1"
     pagecolor="#505050"
     bordercolor="#ffffff"
     borderopacity="1"
     inkscape:showpageshadow="0"
     inkscape:pageopacity="0"
     inkscape:pagecheckerboard="1"
     inkscape:deskcolor="#505050"
     inkscape:zoom="12.72"
     inkscape:cx="33.333332"
     inkscape:cy="39.544024"
     inkscape:window-width="1920"
     inkscape:window-height="1052"
     inkscape:window-x="0"
     inkscape:window-y="0"
     inkscape:window-maximized="1"
     inkscape:current-layer="g1" />
  <g
     inkscape:groupmode="layer"
     inkscape:label="Image"
     id="g1">
    <path
       style="fill:#000000"
       d="M 4.9137379,63.135958 C 3.4071784,61.629398 3.8181692,34.396909 5.3333331,35.333332 c 0.7365475,0.455211 1.3333333,6.45829 1.3333333,13.412022 V 61.333331 H 34.666665 62.666664 V 40.666665 19.999999 H 51.333331 c -6.666666,0 -11.333333,-0.549019 -11.333333,-1.333333 0,-0.784314 4.666667,-1.333333 11.333333,-1.333333 h 11.333333 v -4.666667 c 0,-4.027991 -0.434914,-4.6666663 -3.177824,-4.6666663 -2.056487,0 -3.423894,0.9409694 -3.875174,2.6666663 -0.934646,3.574092 -6.29269,3.574092 -7.227336,0 -0.543996,-2.0802461 -1.818687,-2.6666663 -5.796484,-2.6666663 -2.804525,0 -5.469956,-0.6 -5.923181,-1.3333333 -0.502128,-0.8124602 1.489874,-1.3333333 5.099136,-1.3333333 4.801842,0 6.055198,-0.5048362 6.620529,-2.6666665 0.922118,-3.52618276 6.290741,-3.58154518 7.207898,-0.07433 0.456379,1.745195 2.049523,2.7255561 4.875174,2.9999999 l 4.197262,0.4076628 V 34.666665 63.333331 L 35.24707,63.691513 C 19.066293,63.888514 5.4162938,63.638514 4.9137379,63.135958 Z M 53.333331,6.6666664 c 0,-2.1999999 -0.6,-3.9999998 -1.333333,-3.9999998 -0.733333,0 -1.333333,1.7999999 -1.333333,3.9999998 0,2.1999999 0.6,3.9999996 1.333333,3.9999996 0.733333,0 1.333333,-1.7999997 1.333333,-3.9999996 z M 14.666666,47.999998 c 0,-4.444444 0.592593,-8 1.333333,-8 0.733334,0 1.333334,0.9 1.333334,2 0,1.244445 1.259259,2 3.333333,2 2.444444,0 3.333333,-0.711111 3.333333,-2.666666 0,-1.466667 0.6,-2.666667 1.333333,-2.666667 0.733334,0 1.333334,1.2 1.333334,2.666667 0,1.955555 0.888889,2.666666 3.333333,2.666666 2.920635,0 3.333333,-0.577777 3.333333,-4.666666 0,-4.444444 0.222222,-4.666667 4.666667,-4.666667 4.088888,0 4.666666,-0.412698 4.666666,-3.333333 0,-2.074074 -0.755555,-3.333333 -2,-3.333333 -1.1,0 -2,-0.6 -2,-1.333333 0,-0.740741 3.555556,-1.333334 8,-1.333334 h 8 v 15.333333 15.333333 h -20 -19.999999 z m 9.333333,2 c 0,-2.666666 -0.666667,-3.333333 -3.333333,-3.333333 -2.666667,0 -3.333333,0.666667 -3.333333,3.333333 0,2.666667 0.666666,3.333333 3.333333,3.333333 2.666666,0 3.333333,-0.666666 3.333333,-3.333333 z m 9.333333,0 c 0,-2.666666 -0.666667,-3.333333 -3.333333,-3.333333 -2.666667,0 -3.333333,0.666667 -3.333333,3.333333 0,2.666667 0.666666,3.333333 3.333333,3.333333 2.666666,0 3.333333,-0.666666 3.333333,-3.333333 z m 9.333333,0 c 0,-2.666666 -0.666667,-3.333333 -3.333333,-3.333333 -2.666667,0 -3.333333,0.666667 -3.333333,3.333333 0,2.666667 0.666666,3.333333 3.333333,3.333333 2.666666,0 3.333333,-0.666666 3.333333,-3.333333 z m 9.333333,0 c 0,-2.666666 -0.666667,-3.333333 -3.333333,-3.333333 -2.666667,0 -3.333333,0.666667 -3.333333,3.333333 0,2.666667 0.666666,3.333333 3.333333,3.333333 2.666666,0 3.333333,-0.666666 3.333333,-3.333333 z m -9.333333,-9.333333 c 0,-2.666666 -0.666667,-3.333333 -3.333333,-3.333333 -2.666667,0 -3.333333,0.666667 -3.333333,3.333333 0,2.666667 0.666666,3.333333 3.333333,3.333333 2.666666,0 3.333333,-0.666666 3.333333,-3.333333 z m 9.333333,0 c 0,-2.666666 -0.666667,-3.333333 -3.333333,-3.333333 -2.666667,0 -3.333333,0.666667 -3.333333,3.333333 0,2.666667 0.666666,3.333333 3.333333,3.333333 2.666666,0 3.333333,-0.666666 3.333333,-3.333333 z m 0,-9.333333 c 0,-2.666666 -0.666667,-3.333333 -3.333333,-3.333333 -2.666667,0 -3.333333,0.666667 -3.333333,3.333333 0,2.666667 0.666666,3.333333 3.333333,3.333333 2.666666,0 3.333333,-0.666666 3.333333,-3.333333 z m -40.77975,4.104784 C 2.2641005,31.538607 -1.91525,21.179311 1.7269414,11.907194 2.8591372,9.0249039 3.2337464,6.6666664 2.5594063,6.6666664 c -0.6743402,0 -1.226073,-0.6 -1.226073,-1.3333333 0,-0.7333333 1.7999999,-1.3333333 3.9999998,-1.3333333 3.5555554,0 3.9999999,0.4444445 3.9999999,3.9999999 0,4.0098763 -1.9026523,5.4591403 -3.0632926,2.3333333 -0.3403665,-0.9166667 -1.3388644,0.133333 -2.2188841,2.333333 -2.3170745,5.792556 -0.7758347,12.557373 3.9340225,17.26723 3.4398822,3.439882 5.0849382,4.066103 10.6814872,4.066103 5.693715,0 7.222686,-0.607302 10.974359,-4.358974 3.751672,-3.751673 4.358974,-5.280644 4.358974,-10.974359 0,-5.693715 -0.607302,-7.222686 -4.358974,-10.9743586 -3.862648,-3.8626479 -5.191051,-4.3589742 -11.666667,-4.3589742 -7.678355,0 -9.6239524,-1.3678501 -3.965594,-2.78800755 C 30.593757,-3.6172426 43.653614,16.577047 33.074423,30.026309 27.85866,36.657077 19.037112,38.84158 11.220248,35.438116 Z m 9.113085,-13.670682 c -2.415107,-1.684693 -3,-3.360749 -3,-8.596731 0,-3.5772199 0.6,-6.5040366 1.333333,-6.5040366 0.733333,0 1.333333,2.6788897 1.333333,5.9530886 0,4.58848 0.611272,6.28023 2.666667,7.380244 1.466666,0.784936 2.666666,2.006047 2.666666,2.713578 0,1.785793 -1.486981,1.504414 -4.999999,-0.946143 z"
       id="path1" />
  </g>
</svg>
