<?xml version="1.0" encoding="UTF-8" standalone="no"?>
<!-- Created with Inkscape (http://www.inkscape.org/) -->

<svg
   width="200mm"
   height="200mm"
   viewBox="0 0 200 200"
   version="1.1"
   id="svg1"
   xml:space="preserve"
   inkscape:export-filename="bitmap.svg"
   inkscape:export-xdpi="96"
   inkscape:export-ydpi="96"
   xmlns:inkscape="http://www.inkscape.org/namespaces/inkscape"
   xmlns:sodipodi="http://sodipodi.sourceforge.net/DTD/sodipodi-0.dtd"
   xmlns="http://www.w3.org/2000/svg"
   xmlns:svg="http://www.w3.org/2000/svg"><sodipodi:namedview
     id="namedview1"
     pagecolor="#505050"
     bordercolor="#ffffff"
     borderopacity="1"
     inkscape:showpageshadow="0"
     inkscape:pageopacity="0"
     inkscape:pagecheckerboard="1"
     inkscape:deskcolor="#505050"
     inkscape:document-units="mm" /><defs
     id="defs1" /><g
     inkscape:label="Layer 1"
     inkscape:groupmode="layer"
     id="layer1"><path
       style="fill:#000000"
       d="m 78.807488,185.92381 -8,-5.05377 -1,-44.25066 -1,-44.250655 8.175715,-5.001201 c 4.496643,-2.75066 9.221643,-5.001201 10.5,-5.001201 1.706116,0 2.324285,14.446017 2.324285,54.316327 0,29.87399 -0.675,54.31152 -1.5,54.30563 -0.825,-0.006 -5.1,-2.2849 -9.5,-5.06447 z M 111.80749,135.6452 c 0,-43.921869 0.52561,-55.290133 2.5,-54.071508 1.375,0.848674 5.875,3.736219 10,6.416768 l 7.5,4.873725 v 43.512655 43.51266 l -10,5.68513 -10,5.68512 z m -75.500002,24.40153 -8.5,-5.55965 v -30.83766 c 0,-16.96071 -0.675,-30.808309 -1.5,-30.772449 -0.825,0.03586 -5.1,2.381269 -9.5,5.212021 -4.4,2.830748 -8.6749999,5.151638 -9.4999999,5.157528 -0.825,0.006 -1.4729092,-5.39482 -1.4397981,-12.001566 L 5.9278919,79.232689 37.076331,60.430882 C 80.311337,34.333386 98.466189,23.928969 100.82293,23.89816 c 1.10849,-0.01449 22.70849,12.531799 48,27.880644 l 45.98456,27.906991 0.59981,11.785712 c 0.32989,6.482142 -0.12011,11.774393 -1,11.760553 -0.8799,-0.0138 -5.51668,-2.36407 -10.30396,-5.222728 -4.78728,-2.858658 -9.06228,-5.19756 -9.5,-5.19756 -0.43772,0 -0.79585,13.619518 -0.79585,30.265588 v 30.2656 l -8.15222,5.37551 c -15.13475,9.97974 -14.10186,12.6824 -13.70898,-35.87075 L 152.2992,79.232689 127.55334,64.117993 c -13.61022,-8.313083 -25.89036,-15.128738 -27.2892,-15.1459 -1.398849,-0.01716 -13.748755,6.784451 -27.444241,15.114696 l -24.900884,15.1459 -0.05576,43.348611 c -0.03067,23.84173 -0.730763,43.27582 -1.555763,43.18685 -0.825,-0.089 -5.325,-2.6636 -10,-5.72142 z"
       id="path1" /></g></svg>
