<?xml version="1.0" encoding="UTF-8" standalone="no"?>
<!-- Created with Inkscape (http://www.inkscape.org/) -->

<svg
   width="3200"
   height="1000"
   viewBox="0 0 846.66668 264.58333"
   version="1.1"
   id="svg1"
   xml:space="preserve"
   inkscape:version="1.3.2 (091e20ef0f, 2023-11-25, custom)"
   sodipodi:docname="text.svg"
   xmlns:inkscape="http://www.inkscape.org/namespaces/inkscape"
   xmlns:sodipodi="http://sodipodi.sourceforge.net/DTD/sodipodi-0.dtd"
   xmlns="http://www.w3.org/2000/svg"
   xmlns:svg="http://www.w3.org/2000/svg"><sodipodi:namedview
     id="namedview1"
     pagecolor="#505050"
     bordercolor="#ffffff"
     borderopacity="1"
     inkscape:showpageshadow="0"
     inkscape:pageopacity="0"
     inkscape:pagecheckerboard="1"
     inkscape:deskcolor="#505050"
     inkscape:document-units="mm"
     inkscape:zoom="0.36346186"
     inkscape:cx="1701.6916"
     inkscape:cy="580.52859"
     inkscape:window-width="1920"
     inkscape:window-height="1052"
     inkscape:window-x="0"
     inkscape:window-y="0"
     inkscape:window-maximized="1"
     inkscape:current-layer="layer1" /><defs
     id="defs1"><linearGradient
       id="swatch12"
       inkscape:swatch="solid"><stop
         style="stop-color:#ff5600;stop-opacity:1;"
         offset="0"
         id="stop12" /></linearGradient><rect
       x="1083.2339"
       y="194.92194"
       width="1794.4209"
       height="250.79282"
       id="rect4" /><rect
       x="1264.8661"
       y="212.56943"
       width="581.27301"
       height="435.35516"
       id="rect3" /><rect
       x="1115.9011"
       y="161.59286"
       width="831.30652"
       height="523.36328"
       id="rect2" /><rect
       x="973.43671"
       y="78.381622"
       width="1842.8822"
       height="835.49396"
       id="rect1" /><rect
       x="1083.2339"
       y="194.92194"
       width="1794.4209"
       height="250.79282"
       id="rect5" /></defs><g
     inkscape:label="Layer 1"
     inkscape:groupmode="layer"
     id="layer1"><path
       style="fill:#ff5600;fill-opacity:1;stroke:none;stroke-width:2;stroke-dasharray:none;stroke-opacity:1"
       d="m 100.17516,228.93185 -9.838641,-6.21529 -1.229836,-54.42093 -1.229833,-54.42093 10.054752,-6.15064 c 5.530118,-3.38286 11.341078,-6.15065 12.913238,-6.15065 2.09824,0 2.85848,17.7662 2.85848,66.80003 0,36.74002 -0.83013,66.79411 -1.84474,66.78687 -1.01462,-0.007 -6.27215,-2.81005 -11.68342,-6.22846 z m 40.5845,-61.8343 c 0,-54.01657 0.64641,-67.997639 3.07458,-66.49894 1.69102,1.04374 7.22527,4.59493 12.29833,7.89156 l 9.22375,5.99386 v 53.51331 53.51332 l -12.29833,6.99176 -12.29833,6.99175 z m -92.852391,30.00981 -10.453582,-6.83744 v -37.92518 c 0,-20.85885 -0.830138,-37.88908 -1.84475,-37.84498 -1.014613,0.0442 -6.27215,2.92857 -11.683416,6.40992 -5.411266,3.48135 -10.668804,6.33566 -11.683416,6.3429 -1.014612,0.007 -1.811434,-6.63473 -1.770714,-14.75993 l 0.07404,-14.773079 38.307388,-23.12309 C 102.02465,42.500913 124.35208,29.705215 127.25048,29.667325 c 1.36326,-0.01782 27.92766,15.412023 59.03199,34.288543 l 56.55335,34.32094 0.73766,14.494472 c 0.40571,7.97195 -0.14771,14.48054 -1.22983,14.46352 -1.08213,-0.017 -6.7846,-2.90742 -12.67215,-6.42309 -5.88756,-3.51568 -11.1451,-6.39213 -11.68342,-6.39213 -0.53832,0 -0.97876,16.74973 -0.97876,37.22162 v 37.22164 l -10.02587,6.61098 c -18.61322,12.27342 -17.34294,15.59724 -16.85976,-44.11504 L 190.55771,97.719571 160.12443,79.131013 C 143.38613,68.907307 128.2836,60.525188 126.56326,60.504081 c -1.72035,-0.0211 -16.90867,8.343744 -33.751811,18.588556 l -30.623934,18.626934 -0.06862,53.311559 c -0.03776,29.32135 -0.898725,53.22204 -1.913338,53.11262 -1.014612,-0.10945 -6.548862,-3.27578 -12.298332,-7.03639 z"
       id="path1" /><text
       xml:space="preserve"
       transform="matrix(0.40741784,0,0,0.40741784,-250.93161,34.688801)"
       id="text3"
       style="font-size:207.874px;line-height:0;font-family:'Noto Color Emoji';-inkscape-font-specification:'Noto Color Emoji';text-align:center;letter-spacing:11px;word-spacing:0px;white-space:pre;shape-inside:url(#rect4);display:inline;fill:#000000;fill-opacity:1;stroke:#000000;stroke-width:14.7269;stroke-dasharray:none"><tspan
         x="1302.4372"
         y="257.28407"
         id="tspan6"><tspan
           style="line-height:0px;font-family:Quicksand;-inkscape-font-specification:Quicksand"
           id="tspan5">EL MEYLOUD</tspan></tspan></text><text
       xml:space="preserve"
       transform="matrix(0.40741784,0,0,0.40741784,-164.52068,114.80481)"
       id="text5"
       style="font-size:134.997px;line-height:0;font-family:'Noto Color Emoji';-inkscape-font-specification:'Noto Color Emoji';text-align:center;letter-spacing:11px;word-spacing:0px;white-space:pre;shape-inside:url(#rect5);display:inline;fill:#ff5600;fill-opacity:1;stroke:#ff5600;stroke-width:7.36345;stroke-dasharray:none;stroke-opacity:1"><tspan
         x="1510.8008"
         y="235.42097"
         id="tspan8"><tspan
           style="line-height:0px;font-family:Quicksand;-inkscape-font-specification:Quicksand"
           id="tspan7">REAL ESTATE</tspan></tspan></text></g></svg>
